<svg xmlns="http://www.w3.org/2000/svg" viewBox="0 0 512 512"><defs><linearGradient id="g" x1="0" x2="1" y1="0" y2="1"><stop stop-color="#02B8CF"/><stop offset=".52" stop-color="#FFCA18"/><stop offset="1" stop-color="#F23A73"/></linearGradient></defs><rect width="512" height="512" rx="112" fill="#07191f"/><circle cx="256" cy="238" r="158" fill="url(#g)"/><path d="M132 314c76-48 174-47 248 0 15 9 8 31-10 31H142c-18 0-25-22-10-31z" fill="#FFF2CF"/><path d="M245 103c52 61 42 146-9 229h48c-7-75 17-152 100-194-70-8-109 15-134 50 9-55 39-87 98-110-65-6-101 14-125 55-10-43-42-70-93-82 39 34 55 70 51 109-28-30-64-40-109-28 68 24 108 69 122 133 12-50 30-99 51-162z" fill="#102027"/></svg>
